<svg id="eTXPuUs7j3l1" xmlns="http://www.w3.org/2000/svg" xmlns:xlink="http://www.w3.org/1999/xlink" viewBox="0 0 300 300" shape-rendering="geometricPrecision" text-rendering="geometricPrecision"><ellipse rx="136.048689" ry="137.827716" transform="matrix(1.102547 0 0 1.088316 150 150)" fill="rgba(225,241,9,0.39)" stroke-width="0"/><g transform="matrix(1.096655 0 0 0.921538-20.659168 22.132)"><rect width="207.490637" height="20.973783" rx="0" ry="0" transform="matrix(1 0 0 2.107145 46.254675 89.88765)" fill="#050505" stroke-width="0"/><g transform="translate(-22.47197-47.940074)"><rect width="101.872659" height="68.164794" rx="13" ry="13" transform="matrix(1.132354 0 0 1.21978 57.116051 137.827724)" fill="#080809" stroke-width="0"/><rect width="101.872659" height="68.164794" rx="13" ry="13" transform="translate(63.857678 145.318353)" fill="#0e57e9" stroke-width="0"/></g><g transform="translate(104.119791-47.940083)"><rect width="101.872659" height="68.164794" rx="13" ry="13" transform="matrix(1.132354 0 0 1.21978 57.116051 137.827724)" fill="#080809" stroke-width="0"/><rect width="101.872659" height="68.164794" rx="13" ry="13" transform="translate(63.857678 145.318353)" fill="#e91d0e" stroke-width="0"/></g></g></svg>
