<svg id="egUhMJjbntK1" xmlns="http://www.w3.org/2000/svg" xmlns:xlink="http://www.w3.org/1999/xlink" viewBox="0 0 375 374.999991" shape-rendering="geometricPrecision" text-rendering="geometricPrecision"><g clip-path="url(#egUhMJjbntK5)"><g><path d="M60.863281,147.773438h56.855469v11.617187h-56.855469v-11.617187Zm0,0"/></g><clipPath id="egUhMJjbntK5"><path d="M60.863281,147.773438h56.863281v11.617187h-56.863281v-11.617187Zm0,0" transform="translate(.000001 0.000001)"/></clipPath></g><g clip-path="url(#egUhMJjbntK14)"><g><g clip-path="url(#egUhMJjbntK12)"><g><path d="M53.835938,146.472656h35.617187v25.832032h-35.617187v-25.832032Zm0,0" fill="#004aad"/></g><clipPath id="egUhMJjbntK12"><path d="M62.085938,146.472656h19.15625c2.1875,0,4.285156.871094,5.832031,2.417969s2.417969,3.644531,2.417969,5.832031v9.332032c0,2.1875-.871094,4.289062-2.417969,5.835937s-3.644531,2.414063-5.832031,2.414063h-19.15625c-2.191407,0-4.289063-.867188-5.835938-2.414063s-2.414062-3.648437-2.414062-5.835937v-9.332032c0-2.1875.867187-4.285156,2.414062-5.832031s3.644531-2.417969,5.835938-2.417969Zm0,0"/></clipPath></g></g><clipPath id="egUhMJjbntK14"><path d="M53.835938,146.472656h35.71875v25.832032h-35.71875v-25.832032Zm0,0"/></clipPath></g><g clip-path="url(#egUhMJjbntK23)"><g><g clip-path="url(#egUhMJjbntK21)"><g><path d="M10.996944,0.000711h25.53646c2.916666,0,5.713542,1.15625,7.776042,3.21875s3.223958,4.859375,3.223958,7.776042v12.442709c0,2.916667-1.161458,5.713542-3.223958,7.776042s-4.859376,3.21875-7.776042,3.21875h-25.53646c-2.916667,0-5.713543-1.15625-7.776043-3.21875s-3.21875-4.859375-3.21875-7.776042v-12.442709c0-2.916667,1.15625-5.713542,3.21875-7.776042s4.859376-3.21875,7.776043-3.21875Zm0,0" transform="matrix(.75 0 0 0.75 53.8343 146.476)" fill="none" stroke="#000" stroke-width="8"/></g><clipPath id="egUhMJjbntK21"><path d="M62.082031,146.476562h19.152344c2.1875,0,4.285156.867188,5.832031,2.414063s2.417969,3.644531,2.417969,5.832031v9.332032c0,2.1875-.871094,4.285156-2.417969,5.832031s-3.644531,2.414062-5.832031,2.414062h-19.152344c-2.1875,0-4.285156-.867187-5.832031-2.414062s-2.414062-3.644531-2.414062-5.832031v-9.332032c0-2.1875.867187-4.285156,2.414062-5.832031s3.644531-2.414063,5.832031-2.414063Zm0,0" transform="translate(.000001 0.000001)"/></clipPath></g></g><clipPath id="egUhMJjbntK23"><path d="M53.835938,146.476562h36v25.496094h-36v-25.496094Zm0,0"/></clipPath></g><g clip-path="url(#egUhMJjbntK32)"><g><g clip-path="url(#egUhMJjbntK30)"><g><path d="M93.253906,146.472656h35.621094v25.832032h-35.621094v-25.832032Zm0,0" fill="#ff3131"/></g><clipPath id="egUhMJjbntK30"><path d="M101.503906,146.472656h19.160156c2.1875,0,4.285157.871094,5.832032,2.417969s2.417968,3.644531,2.417968,5.832031v9.332032c0,2.1875-.871093,4.289062-2.417968,5.835937s-3.644532,2.414063-5.832032,2.414063h-19.160156c-2.1875,0-4.285156-.867188-5.832031-2.414063s-2.417969-3.648437-2.417969-5.835937v-9.332032c0-2.1875.871094-4.285156,2.417969-5.832031s3.644531-2.417969,5.832031-2.417969Zm0,0"/></clipPath></g></g><clipPath id="egUhMJjbntK32"><path d="M93.253906,146.472656h35.722656v25.832032h-35.722656v-25.832032Zm0,0"/></clipPath></g><g clip-path="url(#egUhMJjbntK41)"><g><g clip-path="url(#egUhMJjbntK39)"><g><path d="M10.998993,0.000711h25.53646c2.916666,0,5.713542,1.15625,7.776042,3.21875s3.21875,4.859375,3.21875,7.776042v12.442709c0,2.916667-1.15625,5.713542-3.21875,7.776042s-4.859376,3.21875-7.776042,3.21875h-25.53646c-2.916667,0-5.713542-1.15625-7.776043-3.21875s-3.223958-4.859375-3.223958-7.776042v-12.442709c0-2.916667,1.161458-5.713542,3.223958-7.776042s4.859376-3.21875,7.776043-3.21875Zm0,0" transform="matrix(.75 0 0 0.75 93.2547 146.476)" fill="none" stroke="#000" stroke-width="8"/></g><clipPath id="egUhMJjbntK39"><path d="M101.503906,146.476562h19.152344c2.1875,0,4.285156.867188,5.832031,2.414063s2.414063,3.644531,2.414063,5.832031v9.332032c0,2.1875-.867188,4.285156-2.414063,5.832031s-3.644531,2.414062-5.832031,2.414062h-19.152344c-2.1875,0-4.285156-.867187-5.832031-2.414062s-2.417969-3.644531-2.417969-5.832031v-9.332032c0-2.1875.871094-4.285156,2.417969-5.832031s3.644531-2.414063,5.832031-2.414063Zm0,0" transform="translate(0 0.000001)"/></clipPath></g></g><clipPath id="egUhMJjbntK41"><path d="M93.253906,146.476562h35.746094v25.496094h-35.746094v-25.496094Zm0,0"/></clipPath></g><g><g transform="translate(129.687 169.13)"><g transform="translate(0 0.000001)"><path d="M9.609375,3.0625c1.65625,0,2.828125-.1875,3.71875-.578125.875-.359375,1.484375-.9375,2.015625-1.6875.75.734375,1.546875,1.28125,2.515625,1.65625s2.109375.5625,3.5625.5625c.671875.046875,1.6875-.15625,2.96875-.75c1.296875-.5625,2.84375-1.53125,4.5625-3-.5625-1.546875-.9375-4.359375-1.21875-7.75-.265625-3.375-.421875-7.390625-.5-11.390625-.09375-3.984375-.125-7.96875-.140625-11.359375-1.09375.140625-1.9375.25-2.5625.296875-.625.078125-1.03125.109375-1.21875.109375-1.234375,0-2.125-.28125-2.9375-.578125-1.03125-.375-2.03125-.703125-3.359375-.703125-1.9375,0-3.171875.625-3.96875,1.453125s-1.09375,1.890625-1.140625,2.765625c-.078125,1.1875-.09375,2.484375-.09375,3.65625v1.046875c-.09375-.015625-.171875-.015625-.265625-.015625h-.25c-4.0625,0-7.1875,1.3125-9.25,3.765625-2.078125,2.453125-3.15625,6.078125-3.15625,10.671875c0,3.59375.90625,6.53125,2.703125,8.59375C3.375,1.90625,6.078125,3.0625,9.609375,3.0625Zm0-2.578125c-2.671875,0-4.703125-.90625-6.0625-2.53125-1.375-1.609375-2.078125-3.921875-2.078125-6.71875c0-3.9375.9375-6.890625,2.625-8.875s4.125-2.96875,7.203125-2.96875c.96875,0,2.078125.328125,3.171875.9375-.0625-1.390625-.078125-2.8125-.078125-4.359375c0-1.171875.015625-2.46875.09375-3.703125.015625-.375.1875-.8125.578125-1.1875.359375-.34375,1-.609375,1.953125-.609375c1.03125,0,1.859375.328125,2.8125.640625.9375.328125,2,.65625,3.484375.65625.34375,0,.828125,0,1.21875-.0625.015625,1.53125.015625,3.15625.03125,4.859375s.03125,3.390625.078125,5.109375c.078125,3.421875.203125,6.828125.421875,9.765625.21875,2.953125.53125,5.46875,1,7.09375-.296875.203125-.59375.421875-.90625.640625-.3125.234375-.671875.4375-1.015625.625-.734375.375-1.609375.625-2.71875.625-2.0625,0-3.578125-.5-4.609375-1.40625-1.03125-.890625-1.625-2.234375-1.84375-3.875l-.5-.109375c-.59375,1.625-1.015625,2.96875-1.671875,3.9375-.6875.953125-1.609375,1.515625-3.1875,1.515625ZM12.75,-5.609375c.65625,0,1.0625-.734375,1.34375-1.921875.28125-1.15625.390625-2.765625.453125-4.484375-.359375-.71875-.8125-1.15625-1.53125-1.15625-.578125,0-.875.375-1.015625,1.078125-.15625.703125-.15625,1.71875-.15625,2.921875c0,.890625.0625,1.765625.203125,2.4375.140625.6875.359375,1.125.703125,1.125Zm0,0" transform="translate(0 0.000001)" fill="#004aad"/></g></g></g><g><g transform="translate(169.868 169.13)"><g><path d="M33.484375,2.921875c1.78125,0,3.46875-.765625,4.640625-1.765625c1.171875-.984375,1.84375-2.1875,1.75-3.125l.03125.0625c-.15625-1.625-.25-3.609375-.3125-5.734375-.09375-2.125-.15625-4.375-.171875-6.546875-.015625-2.1875-.03125-4.25-.03125-6.046875v-2.203125c0-1.328125.015625-2.34375.03125-3.234375c0-1.53125-.421875-2.53125-1.15625-3.140625-.75-.59375-1.8125-.828125-3.125-.828125-1.109375,0-2.328125.21875-3.59375.46875-1.3125.234375-2.640625.46875-3.84375.46875-.390625,0-.6875-.015625-.921875-.046875h.046875c-.09375-.015625-.21875-.0625-.375-.109375-.375-.078125-.75-.171875-1.203125-.3125-2.296875,2.875-4.15625,5.5625-5.703125,8l-.875-4.9375c-.578125-1.1875-1.421875-1.96875-2.40625-2.4375-1-.484375-2.171875-.671875-3.421875-.671875-.71875,0-1.5.0625-2.28125.171875-.8125.109375-1.625.25-2.34375.390625-1.25.21875-2.546875.4375-3.453125.4375-.15625,0-.484375-.0625-1-.171875-.53125-.09375-1.203125-.234375-2.03125-.421875-.890625,4.28125-1.640625,9.390625-2.078125,14.78125-.46875,5.40625-.65625,11.09375-.4375,16.5l11.890625-.140625v-2.546875c0-.375,0-.65625.015625-.828125c0-.5.015625-1.125.046875-1.921875.609375.75,1.34375,1.40625,2.1875,1.84375s1.84375.6875,3.03125.6875c1.453125,0,2.9375-.359375,4.21875-1c1.296875-.640625,2.40625-1.546875,3.203125-2.71875.34375,2.421875,1.109375,4.171875,2.59375,5.34375s3.75,1.734375,7.078125,1.734375Zm0-2.59375c-3.1875,0-5-.71875-6.046875-2.234375s-1.28125-3.78125-1.28125-6.9375l.0625-4.609375-1.765625,3.15625-1.25,2.28125c-.390625.6875-.75,1.296875-1.09375,1.828125-.703125,1.078125-1.40625,1.875-2.265625,2.390625-.890625.53125-1.984375.765625-3.46875.765625-1.46875,0-2.5-.75-3.375-1.875-.890625-1.109375-1.59375-2.625-2.328125-4.15625l.015625.015625-1.796875-4.234375c-.125,2.875-.203125,5.734375-.25,8.078125l-.0625,3.03125c-.015625.859375-.03125,1.46875-.03125,1.84375l-6.9375-.15625c-.0625-.3125-.078125-.625-.046875-.90625.03125-.265625.046875-.5625.046875-.84375c0-1.625.09375-4,.25-6.703125.171875-2.6875.421875-5.703125.75-8.625.3125-2.9375.6875-5.765625,1.140625-8.109375.234375.0625.421875.078125.546875.0625.125-.03125.296875-.03125.46875-.03125c1.203125,0,2.640625-.25,4.0625-.5c1.390625-.234375,2.8125-.484375,4.046875-.484375c1.609375,0,2.875.375,3.515625,1.6875.421875,1.328125.734375,2.859375,1.0625,4.375.34375,1.515625.65625,3.046875,1.078125,4.359375l1.09375.21875c.875-1.546875,1.875-3.28125,2.984375-5.0625c1.09375-1.75,2.28125-3.515625,3.609375-5.203125.4375.140625.96875.140625,1.484375.140625c1.328125,0,2.734375-.25,4.046875-.484375c1.296875-.21875,2.484375-.46875,3.375-.46875c1.03125,0,1.65625.359375,1.71875,1.375-.03125.890625-.046875,1.890625-.046875,3.234375v2.21875c0,1.828125.015625,3.9375.046875,6.140625.015625,2.203125.0625,4.5.15625,6.640625.078125,2.140625.171875,4.15625.3125,5.78125c0,.375-.421875.875-1.109375,1.28125-.671875.40625-1.640625.71875-2.71875.71875Zm0,0" fill="#004aad"/></g></g></g><g><g transform="translate(211.415 169.13)"><g transform="translate(0 0.000001)"><path d="M12.640625,3.0625c4.203125,0,7.390625-.625,9.75-1.65625s3.90625-2.515625,4.890625-4.234375c.953125-1.6875,1.328125-3.625,1.328125-5.625c0-3.296875-.96875-6.234375-2.859375-8.0625l1.4375-1.203125c-1.71875-2.015625-3.78125-3.375-6.078125-4.25-2.296875-.859375-4.84375-1.234375-7.578125-1.234375-4.28125,0-7.90625,1.03125-10.46875,3.125C0.5,-18,-1.015625,-14.796875,-1.078125,-10.5c0,4.1875.78125,7.578125,2.890625,9.921875C3.90625,1.765625,7.328125,3.0625,12.640625,3.0625Zm0-2.578125c-4.21875,0-6.953125-1.0625-8.640625-2.9375-1.6875-1.890625-2.296875-4.640625-2.296875-8.03125.09375-3.34375,1.34375-5.890625,3.421875-7.578125c2.078125-1.703125,4.984375-2.546875,8.40625-2.546875c4.5,0,7.421875.984375,9.3125,3l-2.5,1.828125c.203125-.015625.359375-.03125.5625-.03125c1.703125,0,3,.828125,3.84375,2.15625s1.265625,3.171875,1.265625,5.1875c0,1.546875-.3125,3.046875-1.09375,4.375-.8125,1.328125-2.109375,2.46875-4.078125,3.28125-2,.8125-4.65625,1.296875-8.203125,1.296875Zm.9375-5.796875c.3125,0,.671875-.421875.953125-1.109375.265625-.671875.46875-1.625.46875-2.671875v-.5c-.015625-.171875-.015625-.375-.015625-.578125c0-.640625.03125-1.265625.203125-1.875l-.3125.234375c-.0625-.375-.078125-.71875-.265625-.953125-.171875-.25-.484375-.40625-1.03125-.40625-.453125,0-.8125.265625-1.03125.921875-.21875.640625-.3125,1.671875-.3125,3.171875c0,1.15625,0,2.078125.171875,2.734375.15625.65625.515625,1.03125,1.171875,1.03125Zm0,0" transform="translate(0 0.000001)" fill="#004aad"/></g></g></g><g><g transform="translate(240.134 169.13)"><g transform="translate(0 0.000001)"><path d="M13,3.015625c3,0,5.828125-.75,8.265625-2.1875s4.46875-3.5625,5.828125-6.359375c1.359375-2.8125,2.0625-6.28125,1.84375-10.390625-.203125-1.875-.71875-3.671875-1.8125-5.03125-1.109375-1.34375-2.765625-2.234375-5.21875-2.234375-3,0-5.53125.578125-7.359375,1.15625l-.171875-.578125c-.046875-.1875-.125-.375-.1875-.546875l-7.25.375c-2.78125.171875-5.84375.328125-9.1875.453125l.9375,9.09375l1.8125-.09375c.515625,1.625,1.03125,3.40625,1.515625,5.09375.46875,1.71875.921875,3.421875,1.28125,4.890625.453125,1.75.875,3.453125,1.28125,5.109375.640625,0,1.609375.09375,2.515625.234375.890625.125,1.78125.25,2.25.375c1.25.3125,2.453125.640625,3.65625.640625Zm0-2.59375c-.96875,0-2.03125-.28125-3.125-.5625-1.109375-.28125-2.171875-.5625-3.125-.5625h-.34375c-.390625-1.71875-.8125-3.46875-1.25-5.234375-.375-1.5-.84375-3.234375-1.296875-4.953125-.46875-1.71875-.96875-3.453125-1.484375-5.0625L1,-15.875l-.375-3.875c.0625,0,.125,0,.21875-.015625.078125,0,.25-.015625.484375-.03125L2.375,-19.875c.46875-.015625,1.125-.0625,1.984375-.109375.84375-.0625,1.921875-.109375,3.21875-.203125l4.78125-.28125c.671875,2,1.046875,4.15625,1.265625,6.203125.203125,2.0625.25,3.984375.25,5.515625c0,.90625-.03125,1.703125-.046875,2.296875l-.0625.953125c.015625.015625.046875.015625.0625.015625h.171875c.328125,0,.9375-.109375,1.46875-.765625.515625-.671875.953125-1.90625.953125-4.171875c0-1.765625-.1875-3.703125-.421875-5.40625s-.578125-3.15625-.84375-3.953125c.5625-.15625,1.21875-.28125,1.9375-.40625c1.234375-.203125,2.890625-.40625,4.8125-.40625c1.546875,0,2.625.59375,3.328125,1.5.703125.890625,1.015625,2.109375,1.140625,3.375v-.03125c.234375,5.265625-1.203125,9.3125-3.671875,12.046875-2.46875,2.71875-5.953125,4.125-9.703125,4.125Zm0,0" transform="translate(0 0.000001)" fill="#004aad"/></g></g></g><g><g transform="translate(269.462 169.13)"><g transform="translate(0 0.000001)"><path d="M15.28125,2.984375l.921875-21.21875v-.34375c0-1.6875-.375-2.71875-.953125-3.40625.78125-.828125,1.359375-2.09375,1.359375-4.109375c0-2.296875-.796875-3.859375-2.203125-4.890625C13,-32,10.90625,-32.4375,8.328125,-32.4375c-5.59375,0-8.5625,1.90625-8.5625,6.34375c0,1.96875.546875,3.203125,1.34375,4.046875-.671875.671875-1.125,1.78125-1.078125,3.6875v20.265625l15.25,1.078125ZM12.8125,0.21875L2.625,-0.515625l-.046875-17.84375c0-.46875.0625-.859375.1875-1.125.25-.578125.65625-.859375,1.140625-.984375.5-.125,1.015625-.140625,1.515625-.140625.25,0,.46875-.03125.65625-.078125l-.09375.015625.15625-.03125c.453125-.15625.625-.15625.828125-.65625L7,-21.375c.046875-.140625.046875-.25.046875-.390625c0-.28125-.109375-.515625-.34375-.65625-.46875-.28125-1.1875-.421875-2-.609375-.421875-.09375-.796875-.234375-1.140625-.46875-.6875-.4375-1.21875-1.1875-1.21875-2.59375c0-2.640625,2.0625-3.765625,5.984375-3.765625c1.765625,0,3.203125.25,4.1875.84375.96875.609375,1.515625,1.578125,1.515625,2.921875c0,1.265625-.40625,2.03125-.984375,2.484375-.578125.46875-1.265625.65625-1.84375.796875-.5.125-.84375.21875-1.078125.375s-.34375.4375-.34375.875c0,.0625,0,.140625.015625.1875.015625.15625.125.296875.359375.421875.203125.15625.5625.28125,1.25.28125.328125.015625.65625.078125,1,.1875.640625.234375,1.21875.8125,1.21875,2.140625l-.8125,18.5625Zm0,0" transform="translate(0 0.000001)" fill="#004aad"/></g></g></g><g><g transform="translate(286.424 169.13)"><g transform="translate(0 0.000001)"><path d="M12.859375,3.0625c1.40625,0,3.0625-.21875,4.640625-.703125C19.0625,1.875,20.59375,1.125,21.703125,0.015625s1.828125-2.546875,1.828125-4.40625c0-.4375-.078125-.96875-.265625-1.5-.171875-.515625-.46875-1.03125-.890625-1.453125.625-.4375,1.140625-.90625,1.546875-1.40625.8125-.953125,1.265625-1.9375,1.484375-2.828125.203125-.875.25-1.59375.203125-2.046875l-.03125-.375c0-2.21875-.65625-3.921875-1.703125-5.1875-1.046875-1.28125-2.484375-2.171875-4.03125-2.75-1.546875-.59375-3.21875-.90625-4.703125-1.078125-1.5-.171875-2.84375-.1875-3.734375-.1875-3.9375,0-7.015625,1.1875-9.125,3.609375-2.09375,2.4375-3.21875,6.109375-3.21875,11.0625c0,3.46875.765625,6.359375,2.890625,8.390625C4.078125,1.875,7.53125,3.0625,12.859375,3.0625Zm0-2.578125c-4.34375,0-7.15625-.921875-8.859375-2.5-1.71875-1.5625-2.359375-3.828125-2.359375-6.515625c0-3.984375.890625-7.015625,2.546875-9.03125c1.65625-2.03125,4.09375-3.046875,7.21875-3.046875.953125,0,2.546875.03125,4.25.328125c1.6875.296875,3.484375.828125,4.890625,1.78125c1.390625.984375,2.375,2.390625,2.453125,4.4375c0,1.796875-.609375,3.15625-1.578125,4.171875s-2.328125,1.640625-3.796875,2.046875c-1.5.40625-3.09375.578125-4.625.578125-.53125,0-1.015625-.03125-1.5-.0625.015625.6875.140625,1.390625.390625,1.90625.21875.515625.578125.84375,1.171875.84375.90625,0,1.953125-.453125,2.796875-.8125h.015625c.859375-.34375,1.875-.6875,2.546875-.6875.125,0,.21875,0,.28125.03125.359375.046875.84375.140625,1.234375.3125.359375.15625.671875.4375.734375.8125.125,1.375-.328125,2.4375-1.09375,3.21875-.75.8125-1.859375,1.359375-3.0625,1.703125s-2.484375.484375-3.65625.484375Zm-1.375-10.46875c.375-.0625.75-.078125,1.109375-.078125.34375,0,.640625-.046875.921875-.140625.53125-.1875.890625-.609375.890625-1.734375c0-.296875-.03125-.71875-.203125-1.0625-.15625-.328125-.4375-.578125-.9375-.578125-.65625,0-1.078125.359375-1.359375,1.015625-.28125.640625-.40625,1.53125-.421875,2.578125Zm0,0" transform="translate(0 0.000001)" fill="#004aad"/></g></g></g><g><g transform="translate(312.042 169.13)"><g transform="translate(.000001 0.000001)"><path d="M11.421875,3.171875c2.4375,0,4.765625-.1875,6.8125-.703125c2.046875-.5,3.75-1.3125,4.984375-2.5625c1.234375-1.234375,1.9375-2.875,1.9375-5.09375c0-2.4375-.71875-3.984375-1.8125-5.078125l1.921875-.1875c.46875-2.21875.671875-3.75.671875-4.703125c0-2.5-.65625-4.3125-1.6875-5.59375-1.046875-1.25-2.515625-2-4.15625-2.453125-1.640625-.4375-3.46875-.546875-5.234375-.546875-2.515625,0-5.09375.5-7.4375,1.375-2.359375.890625-4.453125,2.171875-5.96875,3.703125-1.515625,1.546875-2.4375,3.375-2.4375,5.34375c0,2.4375.90625,4.296875,2.296875,5.78125-1.09375.71875-1.90625,1.625-2.03125,2.796875-.015625.203125-.03125.359375-.03125.78125c0,1.84375.6875,3.265625,1.84375,4.3125C2.234375,1.40625,3.8125,2.125,5.625,2.546875c1.8125.4375,3.8125.625,5.796875.625Zm0-2.578125c-1.5625,0-3.15625-.109375-4.5625-.40625-1.421875-.28125-2.6875-.71875-3.578125-1.40625-.90625-.65625-1.453125-1.5625-1.453125-2.75c0-.125.015625-.328125.03125-.53125.078125-.515625.484375-.9375,1-1.265625.515625-.28125,1.109375-.484375,1.53125-.5625.96875.96875,2.140625,1.53125,3.375,1.828125c1.234375.3125,2.515625.359375,3.640625.359375.890625,0,1.09375-.4375,1.09375-.78125c0-.203125-.09375-.375-.296875-.5-.390625-.28125-1.09375-.484375-2-.65625-.453125-.09375-.9375-.171875-1.4375-.3125C7.734375,-6.625,6.625,-6.921875,5.609375,-7.4375C4.515625,-8.109375,3.53125,-8.875,2.8125,-9.84375c-.75-.953125-1.203125-2.09375-1.203125-3.484375c0-1.484375.765625-2.859375,2.046875-4.015625c1.25-1.171875,3.03125-2.125,4.984375-2.796875c1.953125-.65625,4.125-1.03125,6.21875-1.03125c1.34375,0,2.75.09375,4.015625.390625s2.375.828125,3.171875,1.71875c.8125.90625,1.296875,2.15625,1.296875,3.90625c0,.6875-.078125,1.46875-.234375,2.328125l-8,.78125c-.203125-.765625-.546875-1.15625-.90625-1.375-.34375-.203125-.6875-.203125-.890625-.203125-.234375,0-.484375,0-.6875.140625-.21875.125-.359375.328125-.359375.75c0,.5.15625.890625.453125,1.1875.59375.578125,1.5625.9375,2.828125,1.171875l1.875.390625C18.703125,-9.703125,20,-9.34375,20.96875,-8.625c.953125.71875,1.609375,1.765625,1.609375,3.4375c0,2.296875-1.296875,3.734375-3.34375,4.59375-2.078125.890625-4.859375,1.1875-7.8125,1.1875Zm0,0" transform="translate(.000001 0.000001)" fill="#004aad"/></g></g></g><g><g transform="translate(23.5406 171.526)"><g><path d="M15.8125,3.0625c.875,0,2.125-.09375,3.546875-.328125c1.40625-.21875,2.96875-.578125,4.453125-1.09375C25.265625,1.125,26.625,0.4375,27.671875,-0.4375l-.03125.015625c.46875-.390625.984375-.890625,1.375-1.65625.390625-.78125.65625-1.859375.734375-3.484375v-2.46875c-.015625-.859375-.015625-1.890625-.015625-3.078125v-.328125c0-1.84375-.421875-3.015625-1.171875-3.765625s-1.859375-1.0625-3.234375-1.265625h.015625c-1.328125-.203125-2.515625-.265625-3.78125-.265625-1.40625,0-2.9375.109375-5.078125.3125-.390625.046875-.78125.109375-1.203125.234375.234375-.6875.546875-1.03125,1-1.171875.4375-.15625,1.015625-.140625,1.765625-.140625.53125,0,1.28125.046875,2.328125.171875c1.046875.140625,2.46875.328125,4.34375.625l4.234375-9.375c-2.859375-1.625-5.28125-2.5625-7.484375-3.09375-2.21875-.515625-4.234375-.640625-6.296875-.640625-4.15625,0-7.390625.765625-9.8125,2.171875-2.46875,1.390625-4.140625,3.421875-5.1875,5.953125-1.0625,2.53125-1.515625,5.578125-1.515625,8.984375c0,3.265625.296875,6.140625,1.234375,8.484375s2.515625,4.140625,5.03125,5.375C7.453125,2.421875,11,3.0625,15.8125,3.0625Zm0-2.578125c-4.109375,0-7.078125-.5625-9.25-1.59375-2.15625-1.03125-3.484375-2.5625-4.28125-4.515625-.8125-1.953125-1.046875-4.328125-1.046875-7.078125c0-4.34375.875-7.984375,3.03125-10.53125s5.640625-3.984375,10.90625-3.984375c1.828125,0,3.546875.078125,5.265625.359375c1.703125.328125,3.421875.875,5.203125,1.859375l-2.4375,5.421875c-2.4375-.375-3.921875-.5-5.15625-.5-.734375,0-1.34375.046875-2.03125.125-1.46875.171875-2.390625.984375-2.96875,2.40625s-.78125,3.5-.78125,6.234375c0,1.640625.09375,3.265625.5625,4.453125.4375,1.1875,1.265625,1.984375,2.796875,1.984375.578125,0,1.125-.078125,1.671875-.203125-.015625-.203125-.015625-.4375-.046875-.75-.015625-.296875-.015625-.671875-.03125-1.109375-.015625-.421875-.0625-.9375-.078125-1.546875-.015625-.59375-.046875-1.296875-.09375-2.09375-.046875.015625-.09375.015625-.125.015625h-.125c-.390625,0-.8125-.09375-1.140625-.375-.34375-.296875-.59375-.796875-.59375-1.59375c0-.4375.234375-.75.546875-.984375.3125-.203125.765625-.296875,1.125-.34375c1.984375-.203125,3.5-.296875,4.828125-.296875c1.09375,0,2.140625.0625,3.390625.265625.6875.078125,1.234375.25,1.625.625.359375.359375.5625.921875.5625,1.828125v.5c0,.828125,0,1.546875.03125,2.171875.015625,1.265625.0625,2.21875.140625,2.96875h-.015625c-.0625,1.09375-.21875,1.828125-.484375,2.34375-.25.515625-.546875.828125-.828125,1.046875-.859375.734375-2.015625,1.28125-3.265625,1.703125-1.25.4375-2.578125.71875-3.8125.90625-1.25.1875-2.328125.28125-3.09375.28125Zm0,0" fill="#004aad"/></g></g></g></svg>
